<?xml version="1.0" encoding="utf-8"?>
<!-- Generator: Adobe Illustrator 26.3.1, SVG Export Plug-In . SVG Version: 6.00 Build 0)  -->
<svg version="1.1" id="Layer_1" xmlns="http://www.w3.org/2000/svg" xmlns:xlink="http://www.w3.org/1999/xlink" x="0px" y="0px"
	 viewBox="0 0 1024 512" style="enable-background:new 0 0 1024 512;" xml:space="preserve">
<style type="text/css">
	.st0{fill:#C1272D;stroke:#FFFFFF;stroke-width:0.25;stroke-miterlimit:10;}
	.st1{fill:#0071BC;stroke:#FFFFFF;stroke-width:0.25;stroke-miterlimit:10;}
	.st2{fill:#009245;stroke:#FFFFFF;stroke-width:0.25;stroke-miterlimit:10;}
	.st3{fill:#FBB03B;stroke:#FFFFFF;stroke-width:0.25;stroke-miterlimit:10;}
	.st4{fill:#93278F;stroke:#FFFFFF;stroke-width:0.25;stroke-miterlimit:10;}
</style>
<g>
	<path class="st0" d="M81.2,254.6c-2.1,0-6.8-0.6-13.9-1.9c-0.6,15.1-0.9,41.4-0.9,79.2c0,4-1,7.4-3,10.1c-2,2.7-4.5,4.1-7.4,4.1
		c-3,0-5.6-1.4-7.5-4.1c-2-2.7-3-6.1-3-10.1v-44c0-14.7,0.7-35.3,2.1-61.9c1.5-28.8,2.4-49.5,2.5-61.9v-20.6
		c0-9.9,0.5-17.1,1.4-21.5c1.8-8.8,5.5-12.6,11.2-11.4c2.4-1,5.9-1.7,10.4-2.2c4.5-0.5,10-0.7,16.6-0.7c13.9,0,27,6.2,39.2,18.7
		c13.4,13.8,20.1,30.3,20.1,49.7c0,24.7-7.2,44.4-21.5,59.1C114.6,248,99.2,254.6,81.2,254.6z M86.9,135.7c-3.4,0-6.3,0.1-9,0.3
		c-2.6,0.2-4.9,0.5-6.7,0.9L71,164.5L68.6,224l12.6,1.9c12.8,0,23.6-4.2,32.3-12.7c9.6-9.3,14.4-21.8,14.4-37.6
		c0-11.2-4.6-20.8-13.7-28.9C105.8,139.4,96.7,135.7,86.9,135.7z"/>
	<path class="st1" d="M231.1,263c-0.4,9-3.1,13.4-8.2,13.4c-4.7,0-7.1-3.5-7.1-10.6c0-1.4-0.1-3.9-0.2-7.5l-0.2-9
		c-8.6,1.4-15.6,4.5-20.8,9.6c-4.9,4.7-8.9,11.7-12.1,21.1l0.2,58.9c0,7.2-2.7,10.9-8.1,10.9c-4.8,0-7.2-3.6-7.2-10.9v-75.4
		c0-2.4,0.1-5.9,0.2-10.6c0.1-4.7,0.2-8.3,0.2-10.6c0-7.2,2.4-10.9,7.2-10.9c5.4,0,8.1,5.9,8.1,17.8c10.5-13.3,22.2-19.9,35-19.9
		c4.4,0,7.7,2.2,9.9,6.6c2.2,4.4,3.3,11,3.3,19.8C231.2,259.2,231.2,261.7,231.1,263z"/>
	<path class="st2" d="M267.4,293.6c0,4.3,0.1,10.7,0.3,19.3c0.2,8.6,0.3,15,0.3,19.3c0,3.2-0.7,5.7-2.2,7.7c-1.5,2-3.4,3-5.8,3
		c-2.4,0-4.3-1-5.8-3c-1.5-2-2.3-4.6-2.3-7.7c0-4.3-0.1-10.7-0.3-19.3c-0.2-8.6-0.3-15-0.3-19.3c0-6.7,0.3-15.1,0.8-25.2
		c0.5-10.1,0.8-18.5,0.8-25.2c0-3.2,0.8-5.8,2.3-7.8c1.5-2,3.4-3,5.8-3c2.4,0,4.3,1,5.8,3c1.5,2,2.3,4.6,2.3,7.8
		c0,6.7-0.3,15.1-0.8,25.2C267.7,278.5,267.4,286.9,267.4,293.6z M263.7,206.4c-2.6,0-4.9-1.2-6.8-3.7c-1.9-2.4-2.9-5.4-2.9-8.8
		c0-3.4,1-6.4,2.9-8.8c1.9-2.4,4.2-3.7,6.8-3.7c2.6,0,4.9,1.2,6.8,3.7c1.9,2.4,2.8,5.4,2.8,8.8c0,3.4-0.9,6.4-2.8,8.8
		C268.6,205.1,266.3,206.4,263.7,206.4z"/>
	<path class="st3" d="M332.2,349.2c-11.2,0-20.6-4.4-28.1-13.3c-7.9-9.3-11.8-21.6-11.8-36.9c0-14.5,3.7-29.5,11.1-45
		c8.2-17.2,17.5-25.8,27.7-25.8c5.4,0,11.4,1.6,18,4.9c8.4,4.2,12.6,9.4,12.6,15.5c0,2.7-0.7,5.1-2.1,7.3c-1.4,2.1-3.1,3.2-5.1,3.2
		c-1.6,0-3-0.6-4.1-1.9c-1.2-1.3-2.3-2.5-3.4-3.7c-3.2-3.4-8.5-5-15.8-5c-5.6,0-11.1,6.5-16.6,19.6c-5,12-7.5,22.3-7.5,31.1
		c0,9.5,2.5,16.9,7.4,22.3c4.6,5.1,10.5,7.6,17.7,7.6c3.3,0,6.8-1.1,10.5-3.4l9.5-6.7c1.6-1.1,2.8-1.7,3.5-1.7c2,0,3.8,1.1,5.3,3.2
		c1.5,2.1,2.2,4.5,2.2,7.3c0,5.2-4.2,10.3-12.6,15.2C343.2,347,337.1,349.2,332.2,349.2z"/>
	<path class="st4" d="M419.8,347.3c-12.4,0-22.4-4-30-12.1c-8.4-9-12.6-21.5-12.6-37.6c0-18.6,3.4-34.2,10.3-46.8
		c7.5-13.8,17.5-20.6,30-20.6c9.1,0,16.5,2,22.2,6c7.1,4.9,10.6,12.5,10.6,22.8c0,7.2-3.1,13.7-9.3,19.6c-2.7,2.6-8.5,6.6-17.4,12
		l-31.4,19.4c3.1,5.9,6.9,10.4,11.5,13.4c4.6,3,9.9,4.5,16,4.5c3.8,0,8.2-0.9,13.3-2.8c6.5-2.4,10.6-5.5,12.5-9.3
		c1.9-3.8,3.9-5.7,6-5.7c1.9,0,3.6,1,5.1,2.8c1.5,1.9,2.3,4.1,2.3,6.6c0,8-4.9,14.8-14.7,20.5C435.9,344.9,427.8,347.3,419.8,347.3z
		 M417.6,249.4c-6.7,0-12.2,3.4-16.7,10.2s-7.7,17-9.9,30.6l25.2-15.7c9.9-6.3,17-11.8,21.2-16.4
		C432.7,252.3,426.1,249.4,417.6,249.4z"/>
	<path class="st0" d="M617.9,153.4c-5.6,0-14.3-0.6-26.1-1.8c-11.4-1.1-20.1-1.6-26.1-1.5h-8.1c0.2,13.8,1.3,36.1,3.1,67
		c1.7,28.8,2.5,51.2,2.5,67.2c0,3.5,0.3,8.8,0.8,15.9c0.5,7.1,0.8,12.4,0.8,16c0,6.8-0.8,12.6-2.5,17.5c-2.1,6.6-5.4,9.9-9.9,9.9
		c-3,0-5.8-1.4-8.2-4.2c-2.4-2.8-3.7-6.4-3.7-10.8c0-1.5,0.2-3.7,0.6-6.7c0.4-3,0.6-5.2,0.6-6.7c0-4.9-0.2-12.2-0.7-22
		c-0.5-9.8-0.7-17.2-0.7-22.1c0-14.3-0.9-34.3-2.6-60.2c-1.8-27.9-2.9-48-3.1-60.2l-10.4,0.1c-16.7,0-29.8-1.6-39.3-4.8
		c-6.2-2.1-9.3-7-9.3-14.8c0-4.1,1-7.7,3-10.8c2.3-3.5,5.2-5.1,8.8-4.8c2.7,0.2,8.8,1.1,18.3,2.7c7.6,1.2,13.8,1.8,18.5,1.8
		c4.6,0,11.5-0.1,20.8-0.4c9.3-0.2,16.2-0.4,20.8-0.4c5.9,0,14.6,0.5,26.1,1.6c11.5,1.1,20.2,1.6,26.1,1.6c3.3,0,6,1.5,8.2,4.4
		c2.2,2.9,3.3,6.6,3.3,11c0,4.3-1.1,7.9-3.3,10.8C623.9,151.9,621.2,153.4,617.9,153.4z"/>
	<path class="st1" d="M663.5,348.7c-9.2,0-17.1-4.4-23.7-13.3c-7.4-9.9-11.3-23.2-11.7-39.9c-0.3-16.2,2.8-30.4,9.4-42.8
		c7.7-14.5,18.3-21.8,32-21.8c10.9,0,19.2,6.6,24.9,19.7c4.5,10.6,6.6,23.4,6.5,38.3c-0.2,15.9-3.3,29.5-9.5,40.7
		C684.3,342.3,675,348.7,663.5,348.7z M668.4,252.8c-8-0.1-14.3,4.9-18.8,15c-3.6,8.1-5.3,17.3-5.3,27.7c0,10.4,2.2,18.5,6.5,24.3
		c3.6,4.8,7.9,7.2,12.7,7.2c5.7,0,10.6-2.7,14.7-8.2c4.7-6,7.1-14.1,7.4-24.4C686.3,266.7,680.6,252.8,668.4,252.8z"/>
	<path class="st2" d="M796.7,247.5c-0.7,10.5-1,21.1-1,31.6c0,23.9,0.8,41.9,2.5,54c0.1,1,0.2,1.8,0.2,2.5c0,2.9-0.8,5.2-2.3,7.1
		c-1.5,1.9-3.3,2.8-5.3,2.8c-3.4,0-5.9-3.2-7.5-9.7c-3.9,3.8-8,6.7-12.3,8.6c-4.2,1.9-8.7,2.9-13.3,2.9c-11.3,0-20.7-4.9-28.2-14.8
		c-7.7-10.1-11.5-23.1-11.5-38.9c0-19.1,3.9-34.5,11.6-46c7.7-11.5,17.8-17.3,30.2-17.3c6.3,0,11.2,1.3,14.7,3.9l7.7,7.4
		c0.8-30.2,1.7-50.5,2.7-60.9c0.7-6.4,3.2-9.6,7.5-9.6c5,0,7.5,3.5,7.5,10.4C800,191.5,798.9,213.5,796.7,247.5z M760.3,250.3
		c-9.2,0-16.1,3.6-20.7,10.7c-4.6,7.1-6.9,17.9-6.9,32.2c0,9.2,2.5,17.2,7.5,23.9c5,6.7,10.9,10,17.6,10c4.6,0,8.5-1.1,11.7-3.3
		c1.9-1.3,4.9-4.3,9.1-8.9c0.8-0.9,1.6-2,2.4-3.3l-0.2-18.6l0.1-12.5l0.2-12.7c-2.1-5.8-4.8-10.2-8.3-13.1
		C769.2,251.7,765.1,250.3,760.3,250.3z"/>
	<path class="st3" d="M884,349.5c-1,0-2.9-1.6-5.7-4.7c-2.5-2.9-4.3-5.6-5.5-7.8c-5.3,3.7-9.9,6.5-13.9,8.4c-4,1.9-7.3,2.8-10,2.8
		c-12.8,0-22.1-4.7-28-14.2c-5.5-8.9-8.3-22.5-8.3-40.8c0-17.3,4.6-32.2,13.7-44.5c9.1-12.3,20-18.5,32.6-18.5
		c4.8,0,10.1,1.6,16,4.8c7.4,4,11.2,8.8,11.2,14.5c0,1.9-0.5,3.7-1.6,5.2c-0.5,2.7-1,7.2-1.3,13.4c-0.3,6.2-0.5,14.2-0.5,24
		c-0.1,8.9,0.4,15.9,1.4,21.1c0.5,3.2,2.3,9.5,5.2,18.9c0.4,1.3,1,3.2,1.9,5.7l0.5,1.8c0,2.9-0.8,5.2-2.3,7.1
		C887.8,348.5,886,349.5,884,349.5z M866.9,274.8c0-3.1,0.1-6.4,0.5-10c0.3-3.6,0.8-7.5,1.4-11.6c-2-1.4-3.8-2.4-5.2-3
		c-1.5-0.6-2.6-1-3.5-1c-8.5,0-15.8,4.5-22,13.6c-6.2,9.1-9.2,19.5-9.2,31.3c0,11.7,1.6,20.6,4.8,26.4c3.2,5.9,7.9,8.8,14.3,8.8
		c5.3,0,9.7-1.3,13.4-3.8c2-1.4,4.7-4.1,8.3-8.2C867.8,298.5,866.9,284.3,866.9,274.8z"/>
	<path class="st4" d="M977.5,246.5l-28.4,80.4c-7,19.6-12.4,35.9-16.1,49.1l-5.4,20.8c-1.4,5.2-3.9,7.7-7.4,7.7c-2.3,0-4.3-1-6-3
		c-1.7-2-2.5-4.4-2.5-7.4c0-7.2,5.9-27.9,17.7-62.2l-29.4-74l-3.7-7.8c-1.5-3.3-2.2-6.1-2.2-8.3c0-2.9,0.9-5.5,2.6-7.7
		c1.7-2.2,3.7-3.3,5.8-3.3c2.5,0,4.5,1.3,5.8,3.8c9.3,16.9,19.3,41,30,72.2l12.1-37.1c4.4-12.8,8.6-23.9,12.6-33.1c1.8-4,4-6,6.9-6
		c2.2,0,4.2,1,6,3.1c1.7,2.1,2.6,4.5,2.6,7.4C978.5,242.7,978.2,244.5,977.5,246.5z"/>
</g>
</svg>
