
<?xml version="1.0" encoding="utf-8"?>
<!-- Generator: Adobe Illustrator 26.3.1, SVG Export Plug-In . SVG Version: 6.00 Build 0)  -->
<svg version="1.1" id="Layer_1" xmlns="http://www.w3.org/2000/svg" xmlns:xlink="http://www.w3.org/1999/xlink" x="0px" y="0px"
     viewBox="0 0 1024 512" style="enable-background:new 0 0 1024 512;" xml:space="preserve">
<style type="text/css">
	.st0{fill:#C1272D;}
	.st1{fill:#009245;}
	.st2{fill:#29ABE2;}
	.st3{fill:#FBB03B;}
	.st4{fill:#93278F;}
</style>
    <g>
	<path class="st0" d="M124.9,122.4c16,11,23.9,29.8,23.9,56.4c0,19.4-5.9,43.9-17.7,73.5c-13.1,33.1-26.5,49.7-40.2,49.7
		c-2.7,0-5.6-1.7-8.9-5c-3.2-3.3-6.4-6.6-9.6-9.8v54.8c0,2.8,0.4,6,1.2,9.7c1.2,5.2,1.9,8.7,2.2,10.6c0.3,1.9-0.3,5.4-1.9,10.5
		c-1.6,5.1-3.9,7.8-6.9,8.2c-3,0.4-9.5-2.3-19.5-8.1c-10.5-6-17-11.4-19.5-16.1c-1.5-3-1.5-7.5,0-13.5c1.2-4.5,1.7-8.1,1.7-10.6
		V133.4c0-1.3-0.6-3.7-1.7-7.1c-1.2-3.4-1.7-5.9-1.5-7.4c1-10.3,4-15.5,9-15.5c0.8,0,4.2,1.2,10.1,3.7c5.9,2.5,10.6,3.8,14.1,4
		c5,0.2,11.3-1.5,19.1-5.2c7.7-3.7,13.3-5.5,16.8-5.5c2,0,4,0.3,6,1c3.8,1.3,7.8,4.5,12,9.7C118.9,117.2,122.6,120.9,124.9,122.4z
		 M104.2,147.3c-3.8,0-9.1,2.7-16,8.1c-6.8,5.4-12.1,11.3-15.7,17.7v77.7c9-3.7,17.5-16.9,25.4-39.7c7.3-20.6,11-38.2,11-52.6
		C109,151,107.4,147.3,104.2,147.3z"/>
        <g>
		<path class="st1" d="M224.7,258.1c0.5,2.3-0.2,4.2-2.2,5.6c-1.6,0.9-3.1,1.8-4.6,2.8c-8.4,13.7-19.8,32.3-34.2,55.6
			c0,22.8,0.1,34.5,0.2,35.2c0.1,0.7,0.6,2.5,1.5,5.5c0.9,2.9,1.3,5.3,1.3,7c0,2.7-1.1,4.6-3.4,5.6c-1.5,0.7-3.5,1.1-6,1.1
			c-5.1,0-10.7-1.2-16.8-3.6c-7.7-2.9-11.6-6.5-11.6-10.9c0-1.3,0.5-3.4,1.6-6.2c1.1-2.9,1.6-5.2,1.6-7.1v-85
			c-1.5-8-2.2-12.2-2.2-12.4c0-4.4,1.9-7.2,5.6-8.4c1.6-0.4,3.5-0.6,5.8-0.6c4.7,0,9.6,0.8,14.7,2.5c5.1,1.6,8.2,3.4,9.1,5.3
			c0.3,0.6,0.4,1.3,0.4,2.1c0,0.7-0.9,4.2-2.8,10.3v10.3c3.2-6.2,6.3-12.3,9.4-18.5c4.1-7.7,7.2-11.8,9.2-12.2
			c2.9-0.6,7.4,1.3,13.4,5.6C220.7,251.6,224,255.2,224.7,258.1z"/>
            <path class="st2" d="M275.7,367.5c0.5,5.2-1.1,8.4-5,9.7c-0.7,0.1-1.6,0.2-2.8,0.2c-4.8,0-10.7-1.1-17.8-3.2
			c-7.6-2.3-12.1-4.7-13.4-7.3c-0.7-1.1-0.1-3.4,1.8-6.7c1.2-2.1,1.8-6.1,1.8-11.8v-90.2c-1.6-5.4-2.4-9.1-2.4-10.9
			c0-1.9,2.5-2.8,7.4-2.8c4,0,9.6,1.3,16.7,4c7.1,2.6,11.4,5,12.9,7c0.4,0.6,0.6,1.3,0.6,2.1c0,1.1-0.8,3.3-2.3,6.4
			c-1.5,3.1-2.3,5.5-2.3,7.1v86.3c0,1.4,0.8,3.2,2.3,5.4C274.7,365,275.5,366.5,275.7,367.5z M276.3,219.2c0.1,0.3,0.2,0.9,0.2,1.7
			c0,3.1-0.6,7.2-1.8,12.2c-1.3,5.4-2.6,8.4-3.8,9c-1.3,0.6-7.1-1-17.2-4.6c-10.1-3.6-15.5-6.3-16.2-7.8c-0.4-0.7-0.6-1.8-0.6-3.2
			c0-3.9,0.9-7.9,2.8-12.2c2.1-4.9,4.5-7.6,7.2-8.2c3.1-0.6,8.4,0.7,16,3.8C270.5,213,274.9,216.1,276.3,219.2z"/>
            <path class="st3" d="M375.4,330c0,2.7-2.2,6.4-6.6,10.9c-3.6,8.4-6.8,14.5-9.6,18.2c-6.1,8.6-13.7,13.7-22.6,15.2
			c-1.9,0.3-3.7,0.4-5.4,0.4c-7.5,0-16.7-3.9-27.6-11.6c-9.5-6.9-14.2-22.7-14.2-47.4c0-18.3,2.6-34.9,7.8-49.8
			c5.7-16.2,12.7-24.5,21-25.1c6.5-0.4,14.5,1.4,24,5.6c9.5,4.2,15.9,8.7,19.2,13.7c2.8,4.2,4.2,9.7,4.2,16.5c0,1.9-0.1,4.5-0.4,8
			c-0.3,3.5-0.3,6-0.2,7.4c0.3,3.9,0.4,5.7,0.4,5.4c0,4.6-2.1,6.8-6.2,6.7c-4.8-0.1-9.3-0.9-13.6-2.4c-5.7-2.1-9.2-5.1-10.4-8.8
			c-0.4-1.3,0.2-3,1.7-5.2c1.5-2.1,2.2-3.9,1.9-5.4c0.3-1,0.4-3.5,0.4-7.5c0-8.6-1.4-13-4.2-13.3c-4.3-0.3-7.9,6.7-10.8,20.8
			c-2.7,12.6-4,26.3-4,41.2c0,17.6,1.9,26.9,5.8,27.9c3.1,0.7,7.1-2.9,12-10.7c4.1-6.7,6.4-11.3,6.7-13.6c0.3-2.4,0.6-4.8,0.9-7.2
			c0.9-4,3.3-5.9,7.2-5.6c2.4,0.3,6.6,1.9,12.6,4.9c6,3,9.2,5.3,9.5,6.8C375.2,327.7,375.4,329,375.4,330z"/>
            <path class="st4" d="M471.5,334.3c1.2,2.1-1.4,8.5-7.8,19.1c-6.9,11.3-13.7,19-20.4,23c-0.8,0.4-2,0.6-3.6,0.6
			c-5.2,0-12-1.7-20.4-5.2c-8.9-3.4-14.8-7.2-17.6-11.2c-7.7-10.7-11.6-25.6-11.6-44.6c0-18,3.4-33.9,10.2-47.7
			c7.3-15,16.7-22.7,28-23c4.1-0.1,9.1,1,15,3.4c7.2,3,13.1,7.1,17.8,12.2c1.2,1.3,2.3,5.2,3.4,11.6c1.3,6.9,2,13.6,2,20.2
			c0,9.7-1.5,16.5-4.4,20.2c-13.7,4.7-27.7,7.4-42,7.9c-0.3,7,0.5,14.4,2.4,22.1c1.9,7.7,3.8,11.7,5.8,11.8c2.7,0.1,5.9-2.2,9.6-7.1
			c3.3-4.1,5.4-7.7,6.2-10.5c0.9-4.3,2.2-8.7,3.8-13.3c2.1-0.3,6.3,0.9,12.6,3.4C466.8,330,470.4,332.3,471.5,334.3z M435.9,268.6
			c-2.3-0.3-5.4,3.6-9.5,11.6c-4.1,8-6.4,15.7-7.1,23c6-0.3,10.8-1.9,14.4-4.7c2.1-1.7,3.2-8.9,3.2-21.5
			C436.9,271.7,436.6,268.9,435.9,268.6z"/>
	</g>
        <path class="st0" d="M592.2,158.6c-1.5,0-3.6-0.7-6.2-2.1c-2.7-1.4-4.8-1.9-6.5-1.4l-29.2,9v168.3c0,6.2,1.3,12.9,4,20.2
		c0.8,2.1,0.6,6.2-0.6,12.2c-1.1,6.6-2.9,10.8-5.4,12.5c-0.4,0.2-1.3,0.3-2.8,0.3c-6.2,0-14.9-1.4-26.1-4.2
		c-12.5-3.2-19.9-6.3-22.1-9.3c-2.7-3.8-2.6-9,0.3-15.4c2.5-5.5,3.7-9.6,3.7-12.2V178.1l-20.1,5.8c-0.9,0.2-2.5,1.1-4.7,2.7
		c-2.2,1.6-4,2.2-5.5,1.8c-4.4-1.3-10.3-7.6-17.9-19c-7.6-11.4-10.9-19.1-9.9-23.2c1.5-4.9,6-8.6,13.3-11.2c1.9-0.6,4.3-0.7,7.4-0.3
		c3,0.4,5.4,0.4,7.1,0l98.7-28.5c0.9-0.2,3.7-1.5,8.2-3.8c3-1.5,5.8-2,8.2-1.6c5.3,0.9,8.9,3.2,10.8,7c1.3,2.6,2.7,7.4,4.3,14.4
		c1.9,8.3,2.8,15.6,2.8,21.8c0,4.7-0.5,8.3-1.6,10.7C601.3,157,597.9,158.3,592.2,158.6z"/>
        <g>
		<path class="st1" d="M640.8,245.5c7.3,3.8,13,11.4,17,22.8c3.6,10.4,5.4,22.7,5.4,36.9c0,19.6-3.1,36.5-9.2,50.8
			c-6.8,15.4-15.3,22.3-25.4,20.9c-3.7-1-9.3-2.2-16.8-3.7c-5.5-0.7-10.4-1.8-14.8-3.3c-7.6-2.2-13.7-9.2-18.2-21.1
			c-4.1-11-6.2-23.9-6.2-38.7c0-14.9,2.1-28.5,6.4-40.6c4.8-13.3,11.5-22.7,20.2-28c1.5-0.9,3.5-1.3,6-1.3c2.7,0,7.9,0.9,15.8,2.8
			C626.1,243.1,632.7,243.9,640.8,245.5z M618.4,265.1c-3.6,0-6.9,4.7-10,14.2c-3.1,9.5-4.6,18.6-4.6,27.3c0,10.4,1.1,20.7,3.4,30.9
			c2.5,11,5.5,16.9,8.8,17.8c4.3,1,8.1-4.2,11.4-15.6c3.2-11,4.8-23.2,4.8-36.5c0-7.4-0.9-14.7-2.6-21.9
			C627.2,270.4,623.5,265.1,618.4,265.1z"/>
            <path class="st2" d="M773.9,202.9c0.3,1.4-0.2,4.3-1.5,8.5c-1.3,4.2-1.9,6.6-1.9,7.2v141.7c0,4.8,0.3,7.8,1,8.9
			c2,3.8,2.6,6.3,1.8,7.6c-0.7,1.2-2.4,1.7-5.2,1.7c-3.1,0-7.7-0.7-14-2c-7.1-1.6-10.8-2.4-11.2-2.4c-2.4-0.3-4.1-2-5.2-5.2
			c-0.1-0.3-0.2-1.2-0.2-2.8c0-5.9,0.7-14.8,2.2-26.5c-3.2,7-6.3,13.9-9.4,20.9c-4.4,8.5-8.3,12.5-11.8,11.7
			c-26.2-5.8-39.4-23.3-39.4-52.6c0-16.7,4.2-33.6,12.6-50.8c8.1-16.7,17.1-27.5,26.8-32.6c1.3-0.7,2.6-1.1,3.8-1.1
			c3.3,0,9.1,4.5,17.4,13.5v-42.2c-0.1-1.2-0.7-3.2-1.8-6.2c-1.1-3-1.6-5.2-1.6-6.6c0-3,1.9-4.6,5.6-4.6c3.3,0,8.1,1,14.4,3
			c4,1.4,7.9,2.8,11.8,4.1C771.4,197.2,773.4,199.4,773.9,202.9z M739.1,259c-7.5,3.6-14.2,11.6-20.3,23.9
			c-6.1,12.3-9.1,23.8-9.1,34.3c0,12.3,4.4,19.1,13.2,20.2C727.6,338,733,311.8,739.1,259z"/>
            <path class="st3" d="M882.4,365.2c-0.1,2-0.9,3.8-2.4,5.2c-1.5,1.4-3.1,2-5,1.7c-16.5-2.5-25.7-5.9-27.6-10.2
			c-0.3-0.6-0.4-1.2-0.4-1.7c0-0.7,0.3-1.5,0.9-2.4c0.6-0.9,1-1.6,1.1-2.3c0.1-0.7,0.4-1.3,0.8-1.8c0.3-1.2,0.3-3.7,0.2-7.6
			c-1.6,1.3-4,4.8-7.2,10.4c-3.3,6.2-6.3,10.6-8.8,13c-4.3,4.3-9.1,6.5-14.6,6.5c-3.2,0-6.3-1.4-9.4-4.1c-1.5-1.3-4.1-4.1-7.8-8.5
			c-6.4-7.8-9.9-12.1-10.4-12.8c-2.8-4.1-4.2-7.9-4.2-11.5c0-1.2,0.1-2.3,0.4-3.5c2.5-12.7,10.4-24.8,23.6-36.3
			c9.6-8.3,23.2-17,40.8-26.3c0-4.6-1.1-7.6-3.2-8.9c-1.3-0.9-6,0.8-14,4.9c-8,4.1-13.6,7.6-16.8,10.5c-1.1,1.2-2.8,2.8-5.2,4.8
			c-2.3,1.4-4.3,1.9-6.2,1.3c-1.5-0.4-4.6-3-9.4-7.8c-4.8-4.8-7.4-8-7.8-9.6c-1.1-3.9,0.1-7,3.4-9.1c0.1-0.1,2.8-1,8-2.6
			c4.9-2.9,9.9-5.8,14.8-8.7c10.4-5.4,19.2-8.3,26.4-8.7c3.1-0.1,6.5,1.6,10.4,5.2c3.5,3.3,7,6.6,10.5,9.9c3.5,3.3,7.2,6.4,10.9,9.5
			c4.3,4.1,6.4,8,6.4,11.7v82.1C881.9,361.4,882.5,363.9,882.4,365.2z M850.4,301.8c-6.5,2.8-12.1,7-16.8,12.6
			c-3.5,4.6-6.9,9.2-10.4,13.7c-2.8,3-5.4,7-7.9,11.8c-2.5,4.9-3.7,8.4-3.7,10.8c0,1.2,0.4,1.7,1.2,1.7c2.8,0,9.1-6.6,18.8-19.7
			C841.4,319.6,847.6,309.3,850.4,301.8z"/>
            <path class="st4" d="M996.7,252.4c0.3,1.2,0.4,2.2,0.4,3.3c0,2.5-1,5-3,7.6c-2.5,3.3-4,5.6-4.4,7L950,394.8
			c-0.3,2.9-0.5,5.8-0.8,8.7c-0.5,4.6-1.9,7.2-4,7.8c-0.7,0.1-1.4,0.2-2.2,0.2c-3.6,0-8.1-1.1-13.4-3.2c-5.3-2.1-9-4.2-11.1-6.3
			c-2.1-2.1-3.1-4.3-3.1-6.6c0-2,0.9-4.7,2.8-7.9c1.9-3.3,2.9-5.3,3.2-6.2l6.6-24.6l-32.4-86.5c-0.3-0.6-1.5-2-3.6-4.3
			c-1.7-1.9-2.9-4.8-3.4-8.7c-0.3-1.7,3.2-4.8,10.5-9.2c7.3-4.4,13-6.6,17.1-6.6c1.1,0,1.9,0.2,2.6,0.7c2.1,1.3,3.7,3.8,4.8,7.4
			c0.7,3.2,1.4,6.3,2.2,9.3l17.6,52.8l18.8-54.3c0.8-2.9,1.7-5.8,2.6-8.7c0.9-2.9,2.3-4.7,4.2-5.4c1.2-0.4,2.7-0.7,4.4-0.7
			c4.4,0,9.3,1.1,14.6,3.4C993.3,248.1,996.2,250.3,996.7,252.4z"/>
	</g>
</g>
</svg>
